<?xml version="1.0" encoding="UTF-8"?>
<svg version="1.1" xmlns="http://www.w3.org/2000/svg" width="865" height="513">
<path d="M0 0 C1.31871094 0.98613281 1.31871094 0.98613281 2.6640625 1.9921875 C18.17115193 14.03243519 31.34544696 28.55612006 42 45 C42.45842285 45.70479492 42.9168457 46.40958984 43.38916016 47.13574219 C67.67156931 85.04899339 76.61441887 134.33553107 67.54345703 178.52832031 C64.21106364 193.684273 59.63720885 207.96220747 53 222 C52.68836914 222.6604834 52.37673828 223.3209668 52.05566406 224.00146484 C44.59613607 239.49281266 34.45837966 253.28476307 22.43505859 265.52978516 C21.05717626 266.94142302 19.70945794 268.38231394 18.36328125 269.82421875 C-12.4716292 302.13404271 -60.00910776 320.54864305 -104.20703125 322.1875 C-150.34770283 323.21699707 -194.85395415 303.57896919 -228 272 C-228.57008789 271.45714355 -229.14017578 270.91428711 -229.72753906 270.35498047 C-251.95559335 249.04778616 -278.60692135 214.88234635 -279.3125 182.5 C-279.36857422 180.81390625 -279.36857422 180.81390625 -279.42578125 179.09375 C-278.91055398 175.35008026 -277.96278254 174.26345909 -275 172 C-272.11941986 171.03980662 -270.24095823 170.85777072 -267.24414062 170.82299805 C-266.27883423 170.81016281 -265.31352783 170.79732758 -264.31896973 170.78410339 C-263.27527222 170.77671646 -262.23157471 170.76932953 -261.15625 170.76171875 C-259.53704651 170.74961113 -259.53704651 170.74961113 -257.88513184 170.73725891 C-255.59531255 170.72341769 -253.30547262 170.71269571 -251.015625 170.70483398 C-247.54125779 170.68770342 -244.06786271 170.64382625 -240.59375 170.59960938 C-238.3645903 170.58947483 -236.13542254 170.58096112 -233.90625 170.57421875 C-232.87874634 170.55671066 -231.85124268 170.53920258 -230.79260254 170.52116394 C-219.56387941 170.55432861 -210.04688975 174.0450747 -202 182 C-198.10367394 186.6440219 -195.12501986 191.72761365 -192.22607422 197.03588867 C-180.31956808 218.70763583 -161.0408236 233.91303109 -137.25 240.9375 C-108.94867115 248.70850375 -81.02634553 245.21349219 -55.32299805 231.16870117 C-32.75364637 218.29567736 -16.18642185 197.85453261 -9.07543945 172.81005859 C-1.5696818 144.49466823 -4.91637157 113.61584178 -19.64892578 88.23608398 C-34.05672984 64.59242378 -58.85604988 49.12775706 -85.40869141 42.38867188 C-112.33170798 36.25949531 -137.90854308 43.20140677 -161.24609375 56.90625 C-176.50373319 66.58860116 -190.71630643 80.17700722 -197.71484375 97.05078125 C-198.01189209 97.76355225 -198.30894043 98.47632324 -198.61499023 99.21069336 C-199.19203946 100.6218772 -199.75111841 102.04058419 -200.28930664 103.46704102 C-202.23345795 108.28582211 -204.2722573 110.47439008 -209 113 C-212.60613405 114.20204468 -216.04910276 114.36557805 -219.8125 114.5625 C-220.60076172 114.6042334 -221.38902344 114.6459668 -222.20117188 114.68896484 C-235.41567058 115.31982069 -248.66181574 115.26730757 -261.875 114.625 C-262.58140625 114.59422363 -263.2878125 114.56344727 -264.015625 114.53173828 C-268.92767651 114.24826021 -273.32586831 113.48401157 -278 112 C-280.90282668 107.64575998 -280.5063583 103.61123083 -279.54248047 98.640625 C-278.9046977 96.07108157 -278.19175488 93.53778515 -277.4375 91 C-277.1686499 90.08154297 -276.8997998 89.16308594 -276.62280273 88.21679688 C-274.08195081 79.8091259 -270.86241422 71.87889102 -267 64 C-266.47921875 62.91847656 -265.9584375 61.83695312 -265.421875 60.72265625 C-258.44581427 47.02451759 -249.23284685 34.47573515 -238.47900391 23.51416016 C-236.88757892 21.88490665 -235.32532993 20.23016008 -233.76171875 18.57421875 C-222.00658589 6.29356627 -208.75928069 -3.56612532 -194 -12 C-193.4023584 -12.35126953 -192.8047168 -12.70253906 -192.18896484 -13.06445312 C-132.41747317 -47.97605321 -54.52567129 -42.4711527 0 0 Z " fill="#01427A" transform="translate(775,176)"/>
<path d="M0 0 C0.49387207 0.42539063 0.98774414 0.85078125 1.49658203 1.2890625 C8.78109428 7.61417374 15.0920904 14.35323757 21 22 C21.78890625 22.96164063 22.5778125 23.92328125 23.390625 24.9140625 C38.10203848 43.18767359 58.10328208 74.42545949 56.5234375 98.98828125 C56 101 56 101 53.8125 103.125 C48.65982079 104.72805575 43.75902475 105.18670029 38.3828125 105.31640625 C37.64860077 105.33718735 36.91438904 105.35796844 36.15792847 105.37937927 C34.60306201 105.42251229 33.04813677 105.46356977 31.49316406 105.50268555 C29.16715923 105.56143515 26.84141805 105.62680211 24.515625 105.69335938 C20.74167074 105.79818655 16.9676727 105.88404241 13.19296265 105.95651245 C11.73962143 105.98533294 10.28634452 106.01761951 8.8331604 106.05349731 C6.79373939 106.10196038 4.75462382 106.13512663 2.71484375 106.1640625 C0.96868774 106.1962085 0.96868774 106.1962085 -0.81274414 106.22900391 C-8.38815208 105.68471186 -14.68470057 101.20162218 -20 96 C-21.62532688 93.78142881 -23.08306124 91.65041685 -24.5 89.3125 C-24.88526855 88.69673096 -25.27053711 88.08096191 -25.66748047 87.4465332 C-27.87946629 83.8946922 -30.00894039 80.29724875 -32.125 76.6875 C-45.33361181 54.58916852 -65.23465437 41.28753191 -89.5390625 33.859375 C-118.62450697 26.63725561 -146.63113375 32.0008206 -172.29443359 46.94287109 C-176.52472538 49.56485269 -180.25382114 52.743653 -184 56 C-184.58652344 56.4434375 -185.17304688 56.886875 -185.77734375 57.34375 C-204.38299148 71.70293225 -215.28318419 96.89112897 -218.53125 119.6171875 C-221.80582927 147.09140373 -214.91610397 174.8007073 -198.0625 196.875 C-181.49685491 217.78367461 -158.91002556 230.70952703 -132.74609375 235.609375 C-103.37963431 238.67157098 -75.70790066 232.48500613 -52.26171875 214.140625 C-44.91453939 208.15931755 -38.59379684 201.68246776 -33 194 C-32.52304687 193.360625 -32.04609375 192.72125 -31.5546875 192.0625 C-28.26077455 187.2562874 -26.25857354 181.91791828 -24.31762695 176.45410156 C-22.29916506 171.00987511 -19.68028343 166.30897563 -14.3125 163.6875 C-4.46886771 161.64448198 5.53036553 161.81374921 15.53808594 161.81469727 C18.09847954 161.81252253 20.6584329 161.79434682 23.21875 161.77539062 C50.75678281 161.67670586 50.75678281 161.67670586 55.90478516 165.36450195 C57.94016922 168.40396648 57.52502208 171.54985493 57 175 C55.75003603 179.59510564 54.15128688 184.03549797 52.5 188.5 C52.16020111 189.4327475 52.16020111 189.4327475 51.8135376 190.38433838 C48.19366086 200.31034245 44.13261026 209.76756082 39 219 C38.35836211 220.20388779 37.71774395 221.40831959 37.078125 222.61328125 C29.87162295 235.95047178 20.40500704 247.08228246 10 258 C9.23429687 258.83015625 8.46859375 259.6603125 7.6796875 260.515625 C-17.22574346 286.68743381 -51.87416198 302.50123256 -87 309 C-88.22203125 309.226875 -89.4440625 309.45375 -90.703125 309.6875 C-129.52541398 315.63474427 -168.72781734 307.56302767 -203 289 C-203.6276123 288.66129883 -204.25522461 288.32259766 -204.90185547 287.97363281 C-222.81691872 278.15089831 -240.19633802 263.9479241 -253 248 C-253.76828125 247.05769531 -254.5365625 246.11539062 -255.328125 245.14453125 C-285.09264159 207.99088099 -298.06253468 160.33594397 -293.375 113.125 C-287.90119012 67.0546424 -264.21757539 24.05373872 -227.99414062 -4.97802734 C-160.15161793 -57.70448565 -65.0508128 -56.10055913 0 0 Z " fill="#01427A" transform="translate(401,185)"/>
<path d="M0 0 C0.33 1.65 0.66 3.3 1 5 C-6.84997668 11.14406302 -14.82456972 17.08437098 -22.92138672 22.89916992 C-28.47810361 26.89222552 -33.997919 30.93204113 -39.5 35 C-45.9155336 39.73894965 -52.34958634 44.45083345 -58.8125 49.125 C-59.54726563 49.65738281 -60.28203125 50.18976563 -61.0390625 50.73828125 C-64.97380568 53.57801242 -68.9429482 56.33775879 -73 59 C-72.47403921 64.93203881 -71.17560943 69.81329377 -68.9375 75.3125 C-66 82.63272311 -66 82.63272311 -66 86 C-66.82757813 85.9278125 -67.65515625 85.855625 -68.5078125 85.78125 C-113.73740204 82.26447846 -157.70779841 91.18259105 -195 118 C-196.06347656 118.76441406 -197.12695312 119.52882813 -198.22265625 120.31640625 C-212.87559152 131.18594938 -225.78464418 144.26356547 -236.03125 159.3515625 C-236.6809375 160.22554687 -237.330625 161.09953125 -238 162 C-238.66 162 -239.32 162 -240 162 C-241.4204889 158.2514371 -242.83565872 154.50088628 -244.25 150.75 C-244.64574219 149.70585937 -245.04148437 148.66171875 -245.44921875 147.5859375 C-247.85587383 141.19449286 -250.10727634 134.77763233 -252.19433594 128.27441406 C-252.79433869 126.06218721 -252.79433869 126.06218721 -254 125 C-261.4225844 125.16636827 -268.78406005 126.35739309 -276.08984375 127.59765625 C-278.77447838 127.9688205 -281.29502213 128.07472315 -284 128 C-283.96519531 128.72703125 -283.93039062 129.4540625 -283.89453125 130.203125 C-283.55657957 142.75561604 -285.99807903 153.07108582 -294 163 C-296.9361354 165.57633666 -299.08476602 167.41996534 -303 168 C-303.61875 167.030625 -304.2375 166.06125 -304.875 165.0625 C-306.65678846 161.97164638 -306.65678846 161.97164638 -309 161 C-308.875 159.25 -308.875 159.25 -308 157 C-304.22834634 154.05627032 -300.20833231 152.07848412 -295.83203125 150.22265625 C-293.23418039 148.4889093 -292.32264719 146.83092907 -291 144 C-290.48526071 141.34372506 -290.09197551 138.86106142 -289.8125 136.1875 C-289.54166667 133.79166667 -289.27083333 131.39583333 -289 129 C-290.25417725 129.24451904 -291.50835449 129.48903809 -292.80053711 129.7409668 C-305.08467391 132.11861128 -317.38851769 134.32482671 -329.73608398 136.34741211 C-332.62161159 136.82222684 -335.5050587 137.30863136 -338.38867188 137.79492188 C-340.23946706 138.09966535 -342.09037433 138.40372906 -343.94140625 138.70703125 C-344.79545547 138.85276077 -345.6495047 138.9984903 -346.5294342 139.14863586 C-347.32224289 139.27594589 -348.11505157 139.40325592 -348.93188477 139.53442383 C-349.6235524 139.64893387 -350.31522003 139.76344391 -351.02784729 139.88142395 C-353.21823064 140.01312116 -354.90987163 139.63347465 -357 139 C-357.45703125 136.83984375 -357.45703125 136.83984375 -357 134 C-354.84023443 131.79928325 -352.26876294 130.23014136 -349.6875 128.5625 C-348.11443731 127.50084042 -346.54287608 126.43695348 -344.97265625 125.37109375 C-344.15168457 124.81921387 -343.33071289 124.26733398 -342.48486328 123.69873047 C-338.45520842 120.94393203 -334.54213329 118.03657005 -330.625 115.125 C-329.03263644 113.94650059 -327.44018781 112.76811613 -325.84765625 111.58984375 C-324.65487061 110.70594971 -324.65487061 110.70594971 -323.43798828 109.80419922 C-320.96043498 107.97072046 -318.47897338 106.14266455 -315.99609375 104.31640625 C-315.1760083 103.713125 -314.35592285 103.10984375 -313.51098633 102.48828125 C-311.89775094 101.30179962 -310.28431187 100.11559487 -308.6706543 98.9296875 C-305.165963 96.34996316 -301.67075055 93.76079612 -298.2109375 91.12109375 C-297.65011475 90.69417236 -297.08929199 90.26725098 -296.51147461 89.82739258 C-295.05508014 88.71482196 -293.60349474 87.59596369 -292.15234375 86.4765625 C-290 85 -290 85 -288 85 C-287.84144531 84.32453125 -287.68289063 83.6490625 -287.51953125 82.953125 C-286.45845321 78.89640674 -285.54951619 75.69938424 -282.9375 72.375 C-279.75162689 70.88374025 -278.86048496 71.02642457 -275.5 71.375 C-268.34438934 71.63807392 -264.05060458 66.88855631 -258.89257812 62.54443359 C-255.46257243 59.74538612 -251.85067214 57.19817359 -248.25 54.625 C-247.48550537 54.07489258 -246.72101074 53.52478516 -245.93334961 52.95800781 C-240.14677372 48.79968396 -234.31941174 44.70047274 -228.48779297 40.60571289 C-221.32434575 35.55733881 -214.28243949 30.34702896 -207.2421875 25.12890625 C-206.14922363 24.33444092 -206.14922363 24.33444092 -205.03417969 23.52392578 C-203.02524095 22.05988833 -203.02524095 22.05988833 -201.34863281 20.55029297 C-192.35179098 12.99769554 -176.78497846 14.34281135 -165.47900391 13.39599609 C-163.75444417 13.24828989 -162.02991704 13.10020255 -160.30541992 12.95176697 C-155.66157974 12.55320206 -151.0172898 12.16013414 -146.37287951 11.76827574 C-141.49658414 11.35606134 -136.62068128 10.93925127 -131.74472046 10.52310181 C-123.56623808 9.82580171 -115.38746337 9.13201755 -107.20849609 8.44042969 C-97.76209057 7.6416349 -88.31614282 6.83759465 -78.87042677 6.03069055 C-69.76117855 5.25262171 -60.65164758 4.47791446 -51.54197311 3.70485306 C-47.67364114 3.37654158 -43.80540612 3.04711969 -39.93724442 2.71680832 C-35.38525631 2.32828098 -30.83302613 1.94272188 -26.28059387 1.55943489 C-24.6128268 1.41855395 -22.94514362 1.27667568 -21.27755356 1.13371468 C-18.99723899 0.93839808 -16.71664433 0.74674665 -14.4359436 0.55599976 C-12.52412261 0.39397347 -12.52412261 0.39397347 -10.57367897 0.22867393 C-7.03810273 0.00243813 -3.54172086 -0.04054842 0 0 Z " fill="#01427A" transform="translate(377,15)"/>
<path d="M0 0 C1.83411152 0.00028251 3.66822314 0.00012289 5.50233459 -0.0004425 C10.45194861 -0.00072799 15.40153811 0.00512839 20.35114646 0.01213145 C25.53478097 0.01840654 30.71841611 0.01897207 35.90205383 0.02015686 C45.70483264 0.02325796 55.50760021 0.03145482 65.31037408 0.04150635 C76.47607422 0.05270549 87.6417749 0.0581875 98.80747926 0.06320179 C121.76399304 0.07363851 144.72049686 0.0912142 167.67700195 0.11352539 C168.00700195 1.76352539 168.33700195 3.41352539 168.67700195 5.11352539 C168.1164209 5.45383789 167.55583984 5.79415039 166.97827148 6.14477539 C155.62771766 13.0380655 144.29348757 19.95660523 132.98950195 26.92602539 C124.04424117 32.43566432 115.09298889 37.93539518 106.12191772 43.40292358 C104.87471089 44.16360591 103.62814024 44.92533237 102.38223267 45.68814087 C100.65023387 46.74820753 98.91562842 47.80401175 97.1809082 48.85961914 C96.18905518 49.46475342 95.19720215 50.0698877 94.17529297 50.69335938 C91.67700195 52.11352539 91.67700195 52.11352539 88.67700195 53.11352539 C88.9193457 54.01184082 89.16168945 54.91015625 89.41137695 55.83569336 C90.30790259 59.16361377 91.20219559 62.49211729 92.0949707 65.82104492 C92.48209475 67.26269228 92.87011157 68.70410021 93.2590332 70.14526367 C93.81736442 72.21479238 94.37249694 74.28515619 94.92700195 76.35571289 C95.2621582 77.6020752 95.59731445 78.8484375 95.94262695 80.13256836 C96.67700195 83.11352539 96.67700195 83.11352539 96.67700195 85.11352539 C91.79472703 84.5231416 87.1287776 83.54465557 82.36010742 82.34863281 C36.52838692 70.85942535 -8.75962682 78.70966428 -49.3972168 102.46118164 C-62.90698972 110.57549103 -74.86519032 120.33383281 -86.32299805 131.11352539 C-88.71902714 128.71749629 -88.98182776 127.2204095 -89.7956543 123.95727539 C-90.05540039 122.93504883 -90.31514648 121.91282227 -90.58276367 120.85961914 C-90.84766602 119.7884082 -91.11256836 118.71719727 -91.38549805 117.61352539 C-91.91617087 115.49846966 -92.44863426 113.38386213 -92.9831543 111.26977539 C-93.21655518 110.3294043 -93.44995605 109.3890332 -93.69042969 108.42016602 C-94.24328671 106.11066664 -94.24328671 106.11066664 -95.32299805 104.11352539 C-105.06244777 103.99075922 -114.61355989 104.27573103 -124.32299805 105.11352539 C-124.54213867 106.20149414 -124.7612793 107.28946289 -124.98706055 108.41040039 C-127.49043018 120.24770459 -130.55626189 133.96664018 -141.32299805 141.11352539 C-143.81077247 141.91039064 -145.67739771 142.05953355 -148.32299805 142.11352539 C-148.59112305 141.32977539 -148.85924805 140.54602539 -149.13549805 139.73852539 C-150.17114237 136.83237616 -150.17114237 136.83237616 -153.32299805 135.11352539 C-151.83668444 131.19506224 -150.03390358 129.96897816 -146.32299805 128.11352539 C-145.52764648 127.87504883 -144.73229492 127.63657227 -143.9128418 127.39086914 C-138.6288182 125.77139985 -138.6288182 125.77139985 -134.8581543 121.94946289 C-132.63499349 116.52998409 -131.55550735 110.8217014 -130.32299805 105.11352539 C-131.71905273 105.27788086 -131.71905273 105.27788086 -133.14331055 105.44555664 C-144.16752491 106.69342901 -155.21471547 107.64348521 -166.27264404 108.53305054 C-167.95949128 108.66895508 -169.64622143 108.80632155 -171.33282471 108.94522095 C-180.34094789 109.68423547 -189.27505288 110.36262066 -198.32299805 110.11352539 C-198.81799805 107.63852539 -198.81799805 107.63852539 -199.32299805 105.11352539 C-198.76241699 104.77321289 -198.20183594 104.43290039 -197.62426758 104.08227539 C-185.07837319 96.46304455 -172.54040843 88.83112576 -160.06689453 81.09375 C-154.66754221 77.7512938 -149.24604295 74.47074031 -143.7409668 71.30493164 C-142.16798828 70.38744141 -142.16798828 70.38744141 -140.56323242 69.45141602 C-138.59221289 68.30512251 -136.61096869 67.17615189 -134.61791992 66.06860352 C-129.07775853 62.82175512 -125.99565431 59.96465573 -123.26611328 54.10180664 C-121.7823434 50.97371398 -120.42253086 49.6632918 -117.32299805 48.11352539 C-115.64532455 48.162957 -113.96889046 48.26319798 -112.2956543 48.39477539 C-105.48513522 48.46562532 -101.41836775 45.89112266 -95.88549805 42.17602539 C-93.86674194 40.88444845 -91.84717349 39.59414055 -89.8269043 38.30493164 C-88.77132324 37.62060059 -87.71574219 36.93626953 -86.62817383 36.23120117 C-81.51066497 32.95233636 -76.30592145 29.82184123 -71.10028076 26.68554688 C-68.15090728 24.90654362 -65.20794451 23.11700137 -62.2644043 21.32836914 C-61.10182848 20.62244125 -59.93923092 19.91654915 -58.77661133 19.21069336 C-57.62539973 18.51164918 -56.47419527 17.81259324 -55.32299805 17.11352539 C-54.75425964 16.76815735 -54.18552124 16.42278931 -53.59954834 16.06695557 C-49.81917734 13.77110889 -46.03965562 11.47386881 -42.26049805 9.17602539 C-41.29692383 8.59079102 -40.33334961 8.00555664 -39.34057617 7.40258789 C-38.45692383 6.86504883 -37.57327148 6.32750977 -36.6628418 5.77368164 C-35.89319092 5.30583252 -35.12354004 4.8379834 -34.33056641 4.35595703 C-32.63963725 3.30948512 -30.97757454 2.21657639 -29.32299805 1.11352539 C-19.83752674 -0.77923568 -9.64098646 -0.02090209 0 0 Z " fill="#01427A" transform="translate(628.322998046875,21.886474609375)"/>
<path d="M0 0 C0.62261719 0.4125 1.24523437 0.825 1.88671875 1.25 C2.51964844 1.6625 3.15257812 2.075 3.8046875 2.5 C9.78569387 6.98894295 13.48345504 13.93601946 14.88671875 21.25 C15.83710896 31.00318474 13.88072689 38.83779469 7.76171875 46.5625 C1.63614824 53.0008656 -5.64149494 55.91591468 -14.453125 56.3125 C-23.62784013 56.09694135 -30.15099639 52.76903066 -36.90625 46.6171875 C-42.45843108 40.72227919 -44.23355234 34.29438867 -44.55078125 26.3125 C-44.28203223 17.49977171 -41.25947284 10.37054727 -35.1328125 4.01171875 C-25.74922733 -4.17396193 -11.14305617 -6.11276224 0 0 Z " fill="#01427A" transform="translate(728.11328125,297.75)"/>
<path d="M0 0 C2.66304666 1.91718349 4.85465645 3.9248256 6.98046875 6.42578125 C7.68171875 7.12703125 8.38296875 7.82828125 9.10546875 8.55078125 C14.24615833 16.43317194 14.84316016 25.3657516 12.98046875 34.42578125 C10.18747294 42.61214828 4.96725127 48.46939314 -2.703125 52.38671875 C-10.62409841 55.93980294 -18.40500192 56.39823252 -26.69921875 53.484375 C-34.63944844 49.82800783 -41.09226655 44.49272726 -44.35546875 36.20703125 C-46.4890259 27.27119187 -46.36755146 17.54748161 -41.5625 9.5390625 C-31.80611531 -3.82347956 -14.88002579 -8.84825654 0 0 Z " fill="#01427A" transform="translate(345.01953125,298.57421875)"/>
</svg>
